<svg width="1440" height="43" viewBox="0 0 1440 43" fill="none" xmlns="http://www.w3.org/2000/svg">
<g clip-path="url(#clip0_75_811)">
<path d="M0 0V34.1138C5.47131 38.331 9.89331 43 20.9109 43C39.7981 43 39.7981 27.7881 58.6853 27.7881C77.5725 27.7881 77.4976 43 96.3848 43C115.272 43 115.272 27.7881 134.159 27.7881C153.046 27.7881 153.046 43 171.934 43C190.821 43 190.821 27.7881 209.708 27.7881C228.595 27.7881 228.52 43 247.407 43C266.295 43 266.295 27.7881 285.182 27.7881C304.069 27.7881 304.069 43 322.956 43C341.844 43 341.844 27.7881 360.731 27.7881C379.618 27.7881 379.543 43 398.43 43C417.318 43 417.317 27.7881 436.205 27.7881C455.092 27.7881 455.017 43 473.904 43C492.791 43 492.791 27.7881 511.679 27.7881C530.566 27.7881 530.566 43 549.453 43C568.34 43 568.34 27.7881 587.227 27.7881C606.115 27.7881 606.04 43 624.927 43C643.814 43 643.814 27.7881 662.701 27.7881C681.514 27.7881 681.514 43 700.401 43C719.288 43 719.288 27.7881 738.175 27.7881C757.062 27.7881 757.062 43 775.95 43C794.837 43 794.837 27.7881 813.724 27.7881C832.611 27.7881 832.536 43 851.424 43C870.311 43 870.311 27.7881 889.198 27.7881C908.085 27.7881 908.01 43 926.897 43C945.785 43 945.785 27.7881 964.672 27.7881C983.559 27.7881 983.559 43 1002.45 43C1021.33 43 1021.33 27.7881 1040.22 27.7881C1059.11 27.7881 1059.03 43 1077.92 43C1096.81 43 1096.81 27.7881 1115.69 27.7881C1134.58 27.7881 1134.58 43 1153.39 43C1172.21 43 1172.28 27.7881 1191.17 27.7881C1210.06 27.7881 1210.06 43 1228.94 43C1247.83 43 1247.83 27.7881 1266.72 27.7881C1285.6 27.7881 1285.53 43 1304.42 43C1323.3 43 1323.3 27.7881 1342.19 27.7881C1361.08 27.7881 1361.08 43 1379.89 43C1398.7 43 1398.78 27.7881 1417.67 27.7881C1429.13 27.7881 1433.85 33.8879 1440 38.4063V0L0 0Z" fill="#28282B"/>
</g>
<defs>
<clipPath id="clip0_75_811">
<rect width="1440" height="43" fill="white" transform="matrix(-1 0 0 -1 1440 43)"/>
</clipPath>
</defs>
</svg>
