<svg width="1440" height="44" viewBox="0 0 1440 44" fill="none" xmlns="http://www.w3.org/2000/svg">
<g clip-path="url(#clip0_75_808)">
<path d="M1440 43.7607V9.64691C1434.53 5.42974 1430.11 0.760742 1419.09 0.760742C1400.2 0.760742 1400.2 15.9727 1381.31 15.9727C1362.43 15.9727 1362.5 0.760742 1343.62 0.760742C1324.73 0.760742 1324.73 15.9727 1305.84 15.9727C1286.95 15.9727 1286.95 0.760742 1268.07 0.760742C1249.18 0.760742 1249.18 15.9727 1230.29 15.9727C1211.4 15.9727 1211.48 0.760742 1192.59 0.760742C1173.71 0.760742 1173.71 15.9727 1154.82 15.9727C1135.93 15.9727 1135.93 0.760742 1117.04 0.760742C1098.16 0.760742 1098.16 15.9727 1079.27 15.9727C1060.38 15.9727 1060.46 0.760742 1041.57 0.760742C1022.68 0.760742 1022.68 15.9727 1003.8 15.9727C984.908 15.9727 984.983 0.760742 966.096 0.760742C947.209 0.760742 947.209 15.9727 928.321 15.9727C909.434 15.9727 909.434 0.760742 890.547 0.760742C871.66 0.760742 871.66 15.9727 852.773 15.9727C833.885 15.9727 833.96 0.760742 815.073 0.760742C796.186 0.760742 796.186 15.9727 777.299 15.9727C758.486 15.9727 758.486 0.760742 739.599 0.760742C720.712 0.760742 720.712 15.9727 701.825 15.9727C682.938 15.9727 682.938 0.760742 664.05 0.760742C645.163 0.760742 645.163 15.9727 626.276 15.9727C607.389 15.9727 607.464 0.760742 588.576 0.760742C569.689 0.760742 569.689 15.9727 550.802 15.9727C531.915 15.9727 531.99 0.760742 513.103 0.760742C494.215 0.760742 494.215 15.9727 475.328 15.9727C456.441 15.9727 456.441 0.760742 437.554 0.760742C418.667 0.760742 418.667 15.9727 399.779 15.9727C380.892 15.9727 380.967 0.760742 362.08 0.760742C343.193 0.760742 343.193 15.9727 324.305 15.9727C305.418 15.9727 305.418 0.760742 286.606 0.760742C267.794 0.760742 267.719 15.9727 248.832 15.9727C229.944 15.9727 229.944 0.760742 211.057 0.760742C192.17 0.760742 192.17 15.9727 173.283 15.9727C154.395 15.9727 154.47 0.760742 135.583 0.760742C116.696 0.760742 116.696 15.9727 97.8088 15.9727C78.9216 15.9727 78.9216 0.760742 60.1093 0.760742C41.297 0.760742 41.2221 15.9727 22.3349 15.9727C10.8676 15.9727 6.14584 9.87283 0 5.35444V43.7607H1440Z" fill="#28282B"/>
</g>
<defs>
<clipPath id="clip0_75_808">
<rect width="1440" height="43" fill="white" transform="translate(0 0.760742)"/>
</clipPath>
</defs>
</svg>
